<svg width="88" height="51" viewBox="0 0 88 51" fill="none" xmlns="http://www.w3.org/2000/svg">
<path d="M44 0C40.5964 0 37.3322 1.3433 34.9255 3.73439C32.5187 6.12548 31.1667 9.36849 31.1667 12.75C31.1667 16.1315 32.5187 19.3745 34.9255 21.7656C37.3322 24.1567 40.5964 25.5 44 25.5C47.4036 25.5 50.6678 24.1567 53.0745 21.7656C55.4813 19.3745 56.8333 16.1315 56.8333 12.75C56.8333 9.36849 55.4813 6.12548 53.0745 3.73439C50.6678 1.3433 47.4036 0 44 0ZM44 7.28571C45.4587 7.28571 46.8576 7.86141 47.8891 8.88617C48.9205 9.91092 49.5 11.3008 49.5 12.75C49.5 14.1992 48.9205 15.5891 47.8891 16.6138C46.8576 17.6386 45.4587 18.2143 44 18.2143C42.5413 18.2143 41.1424 17.6386 40.1109 16.6138C39.0795 15.5891 38.5 14.1992 38.5 12.75C38.5 11.3008 39.0795 9.91092 40.1109 8.88617C41.1424 7.86141 42.5413 7.28571 44 7.28571ZM20.1667 10.9286C17.7355 10.9286 15.4039 11.8881 13.6849 13.596C11.9658 15.3039 11 17.6203 11 20.0357C11 23.46 12.9433 26.4107 15.73 27.9771C17.05 28.7057 18.5533 29.1429 20.1667 29.1429C21.78 29.1429 23.2833 28.7057 24.6033 27.9771C25.96 27.2121 27.0967 26.1193 27.94 24.8079C25.2633 21.3471 23.8333 17.1214 23.8333 12.75C23.8333 12.4221 23.8333 12.0579 23.8333 11.73C22.7333 11.22 21.4867 10.9286 20.1667 10.9286ZM67.8333 10.9286C66.5133 10.9286 65.2667 11.22 64.1667 11.73C64.1667 12.0579 64.1667 12.4221 64.1667 12.75C64.1667 17.1214 62.7367 21.3471 60.06 24.8079C60.5 25.5 60.9767 26.0464 61.5267 26.5929C62.1133 27.1393 62.7 27.6129 63.3967 27.9771C64.7167 28.7057 66.22 29.1429 67.8333 29.1429C69.4467 29.1429 70.95 28.7057 72.27 27.9771C75.0567 26.4107 77 23.46 77 20.0357C77 17.6203 76.0342 15.3039 74.3151 13.596C72.5961 11.8881 70.2645 10.9286 67.8333 10.9286ZM44 32.7857C35.42 32.7857 18.3333 37.0479 18.3333 45.5357V51H69.6667V45.5357C69.6667 37.0479 52.58 32.7857 44 32.7857ZM17.27 34.7893C10.1933 35.6271 0 39.1971 0 45.5357V51H11V43.9693C11 40.29 13.53 37.23 17.27 34.7893ZM70.73 34.7893C74.47 37.23 77 40.29 77 43.9693V51H88V45.5357C88 39.1971 77.8067 35.6271 70.73 34.7893ZM44 40.0714C49.61 40.0714 55.88 41.8929 59.51 43.7143H28.49C32.12 41.8929 38.39 40.0714 44 40.0714Z" fill="url(#paint0_linear_98_215)"/>
<defs>
<linearGradient id="paint0_linear_98_215" x1="44" y1="0" x2="44" y2="51" gradientUnits="userSpaceOnUse">
<stop stop-color="#6577E1"/>
<stop offset="1" stop-color="#A950BF"/>
</linearGradient>
</defs>
</svg>
