<svg width="48" height="59" viewBox="0 0 48 59" fill="none" xmlns="http://www.w3.org/2000/svg">
<path d="M23.5211 30.8409C23.5744 30.385 23.6277 29.9559 23.6277 29.5C23.6277 29.0441 23.5744 28.615 23.5211 28.1591L26.4009 25.9868C26.6676 25.7991 26.6676 25.4773 26.5609 25.1286L23.8144 20.4891C23.6544 20.1941 23.2811 20.1136 22.9878 20.1941L19.5746 21.535C18.8546 20.9986 18.0813 20.5695 17.2547 20.2209L16.7214 16.6541C16.7214 16.3323 16.428 16.0909 16.0814 16.0909H10.6683C10.2683 16.0909 9.97499 16.3323 9.92166 16.6541L9.33502 20.1941C8.56172 20.5159 7.78842 20.9986 7.06845 21.4545L3.65527 20.1136C3.33528 20.0332 2.98863 20.1136 2.82864 20.4623L0.0820903 25.1018C-0.0779027 25.4773 0.00209396 25.7723 0.268749 25.9868L3.14862 28.1591C3.09529 28.615 3.06863 29.0709 3.06863 29.5C3.06863 29.9559 3.12196 30.385 3.17529 30.8409L0.268749 33.04C0.00209396 33.2277 0.0020938 33.6032 0.108756 33.8982L2.8553 38.5377C3.0153 38.8864 3.38861 38.8864 3.68193 38.8864L7.09512 37.5455C7.81509 38.0282 8.58839 38.4573 9.41502 38.8059L9.94833 42.3459C9.97499 42.6677 10.2683 42.9091 10.6683 42.9091H16.1081C16.4547 42.9091 16.748 42.6677 16.7747 42.3459L17.3347 38.8059C18.1346 38.4841 18.9079 38.0014 19.6279 37.5455L23.0411 38.8864C23.3611 38.9668 23.7077 38.8864 23.8677 38.5377L26.6676 33.8982C26.7743 33.6032 26.6676 33.2545 26.4543 33.04L23.5211 30.8409ZM13.3348 34.1932C10.6683 34.1932 8.53505 32.1014 8.53505 29.5C8.53505 26.8986 10.6683 24.8068 13.3348 24.8068C16.0014 24.8068 18.1346 26.8986 18.1346 29.5C18.1346 32.1014 16.0014 34.1932 13.3348 34.1932ZM42.6669 0H16.0014C14.587 0 13.2305 0.565096 12.2303 1.57097C11.2302 2.57685 10.6683 3.94111 10.6683 5.36364V13.4091H16.0014V8.04545H42.6669V50.9545H16.0014V45.5909H10.6683V53.6364C10.6683 55.0589 11.2302 56.4231 12.2303 57.429C13.2305 58.4349 14.587 59 16.0014 59H42.6669C44.0813 59 45.4378 58.4349 46.438 57.429C47.4381 56.4231 48 55.0589 48 53.6364V5.36364C48 3.94111 47.4381 2.57685 46.438 1.57097C45.4378 0.565096 44.0813 0 42.6669 0Z" fill="url(#paint0_linear_98_188)"/>
<defs>
<linearGradient id="paint0_linear_98_188" x1="24" y1="0" x2="24" y2="59" gradientUnits="userSpaceOnUse">
<stop stop-color="#6577E1"/>
<stop offset="1" stop-color="#A950BF"/>
</linearGradient>
</defs>
</svg>
