<svg width="53" height="51" viewBox="0 0 53 51" fill="none" xmlns="http://www.w3.org/2000/svg">
<path d="M5.36842 42.9474V5.36842H24.1579V24.1579H42.9474V26.8421C44.8263 26.8421 46.6247 27.1911 48.3158 27.7816V16.1053L32.2105 0H5.36842C2.38895 0 0 2.38895 0 5.36842V42.9474C0 45.9 2.38895 48.3158 5.36842 48.3158H27.7816C27.1911 46.6247 26.8421 44.8263 26.8421 42.9474H5.36842ZM29.5263 4.02632L44.2895 18.7895H29.5263V4.02632ZM52.3421 38.25L39.5921 51L32.2105 42.9474L35.3242 39.8337L39.5921 44.1016L49.2284 34.4653L52.3421 38.25Z" fill="url(#paint0_linear_98_211)"/>
<defs>
<linearGradient id="paint0_linear_98_211" x1="26.1711" y1="0" x2="26.1711" y2="51" gradientUnits="userSpaceOnUse">
<stop stop-color="#6577E1"/>
<stop offset="1" stop-color="#A950BF"/>
</linearGradient>
</defs>
</svg>
