<svg width="56" height="51" viewBox="0 0 56 51" fill="none" xmlns="http://www.w3.org/2000/svg">
<path d="M21.0231 50.6028C25.8523 48.7236 24.7942 43.5425 22.3525 40.2675C19.9379 36.9118 16.6008 34.6032 13.2366 32.375C10.8491 30.8717 8.65154 28.9926 6.88806 26.845C6.1284 25.9591 4.58196 24.3215 6.15553 23.9994C7.75624 23.6773 10.5236 25.2343 11.9343 25.8249C14.4032 26.845 16.845 28.0262 19.1239 29.4221L21.8641 24.8584C17.6318 22.0934 12.2056 19.6505 7.15936 18.9257C4.28353 18.4962 1.2449 19.0868 0.268203 22.1739C-0.599975 24.8316 0.783684 27.5161 2.35726 29.61C6.07414 34.5226 11.853 36.885 16.1667 41.1265C17.0891 42.0124 18.2015 43.0593 18.7441 44.2942C19.3139 45.4754 19.1782 45.5559 17.9031 45.5559C14.5389 45.5559 10.3336 42.952 7.59345 41.2339L4.85327 45.7975C9.00424 48.3209 15.9497 52.2672 21.0231 50.6028ZM46.0103 14.3084L30.6273 29.5295H24.4144V23.382L39.7974 8.13403L46.0103 14.3084ZM55.2347 12.2145C55.2076 13.0198 54.3665 13.852 53.4983 14.6842L46.6615 21.476L44.3011 19.1405L51.355 12.1876L49.7543 10.6038L47.9366 12.4024L41.7237 6.25488L47.5568 0.48321C48.2079 -0.16107 49.266 -0.16107 49.89 0.48321L53.7697 4.32204C54.4208 4.91263 54.4208 5.98643 53.7697 6.63071C53.1999 7.19445 52.6573 7.73135 52.6573 8.26825C52.603 8.80515 53.1457 9.39574 53.6883 9.85211C54.4751 10.6575 55.2618 11.4091 55.2347 12.2145Z" fill="url(#paint0_linear_98_206)"/>
<defs>
<linearGradient id="paint0_linear_98_206" x1="27.6177" y1="0" x2="27.6177" y2="51" gradientUnits="userSpaceOnUse">
<stop stop-color="#6577E1"/>
<stop offset="1" stop-color="#A950BF"/>
</linearGradient>
</defs>
</svg>
