<svg width="77" height="51" viewBox="0 0 77 51" fill="none" xmlns="http://www.w3.org/2000/svg">
<path d="M70.125 41.4375H57.375V19.125H70.125M73.3125 12.75H54.1875C53.3421 12.75 52.5314 13.0858 51.9336 13.6836C51.3358 14.2814 51 15.0921 51 15.9375V47.8125C51 48.6579 51.3358 49.4686 51.9336 50.0664C52.5314 50.6642 53.3421 51 54.1875 51H73.3125C74.1579 51 74.9686 50.6642 75.5664 50.0664C76.1642 49.4686 76.5 48.6579 76.5 47.8125V15.9375C76.5 15.0921 76.1642 14.2814 75.5664 13.6836C74.9686 13.0858 74.1579 12.75 73.3125 12.75ZM12.75 6.375H70.125V0H12.75C11.0592 0 9.43774 0.67165 8.24219 1.86719C7.04665 3.06274 6.375 4.68424 6.375 6.375V41.4375H0V51H44.625V41.4375H12.75V6.375Z" fill="url(#paint0_linear_98_207)"/>
<path d="M34.3071 14.96L36.4816 15.4133L32.3324 35.36L30.158 34.9066L34.3071 14.96ZM41.7402 25.16L37.7574 21.0913V17.884L44.8798 25.16L37.7574 32.4246V29.2173L41.7402 25.16ZM21.7598 25.16L28.8821 17.884V21.0913L24.8994 25.16L28.8821 29.2173V32.4246L21.7598 25.16Z" fill="url(#paint1_linear_98_207)"/>
<defs>
<linearGradient id="paint0_linear_98_207" x1="38.25" y1="0" x2="38.25" y2="51" gradientUnits="userSpaceOnUse">
<stop stop-color="#6577E1"/>
<stop offset="1" stop-color="#A950BF"/>
</linearGradient>
<linearGradient id="paint1_linear_98_207" x1="33.3198" y1="14.96" x2="33.3198" y2="35.36" gradientUnits="userSpaceOnUse">
<stop stop-color="#6577E1"/>
<stop offset="1" stop-color="#A950BF"/>
</linearGradient>
</defs>
</svg>
